<svg version="1.2" xmlns="http://www.w3.org/2000/svg" viewBox="0 0 179 176" width="179" height="176">
	<title>logo-svg</title>
	<style>
		.s0 { fill: #4f4f4f } 
		.s1 { fill: #fefefe } 
		.s2 { fill: #df3d33 } 
		.s3 { fill: #fefdfd } 
	</style>
	<g id="Layer">
		<path id="Layer" class="s0" d="m3.9 88.1c0.1-47.1 38.3-85.1 85.3-85 46.9 0 85.1 38.3 85.1 85.2 0 47-38.4 85.3-85.4 85.1-47.1-0.1-85.1-38.3-85-85.3z"/>
		<path id="Layer" class="s1" d="m13.4 88.2c0-41.8 34-75.7 75.8-75.6 41.7 0 75.6 34 75.6 75.7 0 41.7-34.1 75.7-75.9 75.6-41.7 0-75.5-33.9-75.5-75.7z"/>
		<path id="Layer" class="s2" d="m51 106c-2.7 0-5.5 0-8.2-0.1-2 0-3.6-0.7-3.8-2.8-0.2-2.2 1.2-3.3 3.2-3.4 1.3-0.1 1.4-0.8 1.4-1.8q-0.1-10 0-20c0-1.2-0.3-1.8-1.6-1.9-2-0.1-3.1-1.2-3-3.2 0.2-2 1.6-2.9 3.5-2.9 5.2 0 10.5-0.1 15.7 0.1 7.8 0.2 13.6 8.7 8.6 15.6-0.4 0.6-0.8 1 0.1 1.6 4 3.1 5.2 7.1 3.4 11.7-1.8 4.9-5.9 6.8-10.8 7-2.8 0.2-5.7 0.1-8.5 0.1z"/>
		<path id="Layer" class="s2" d="m105.1 88c-0.2 5.5-1.5 10.5-5.7 14.4-6.7 6.4-16.3 5.7-22.1-1.6-5.9-7.6-5.7-19.2 0.7-26.5 7-8.1 20-6.2 24.8 3.6 1.5 3.2 2.5 6.5 2.3 10.1z"/>
		<path id="Layer" class="s2" d="m122.7 69.9c4.3 0 8.7 0.1 13 0 1.4 0 1.9 0.3 1.9 1.8-0.1 3.5-0.1 7-0.1 10.5 0 2-0.9 3.4-3.1 3.4-2.2 0-3-1.4-3.1-3.4 0-1.2-0.1-2.4 0.1-3.5 0.2-2.2-0.7-2.5-2.7-2.6-2.4-0.1-2.9 0.7-2.9 2.9 0.2 6.1 0.2 12.2 0.1 18.2-0.1 1.8 0.3 2.5 2.2 2.4 3.6-0.1 5.3 1.1 5.3 3.2 0 2.1-1.7 3.2-5.3 3.2-4.2 0-8.3 0-12.5-0.1-2 0-3.5-1-3.5-3.1-0.1-2.1 1.4-3 3.4-3.2 0.4 0 0.8-0.1 1.2 0 2.4 0.4 2.9-0.6 2.9-2.8q-0.3-9.3 0-18.5c0-2.2-1-2.3-2.6-2.2-1.4 0.1-3.2-0.4-3 2.1 0.2 1.5 0.1 3 0 4.5-0.1 1.8-1.1 2.9-3 2.9-1.9 0-3-1.1-3.1-2.9-0.1-3.9 0-7.7 0-11.5-0.1-1.5 0.9-1.3 1.8-1.3q6.5 0 13 0z"/>
		<path id="Layer" class="s1" d="m55.5 99.6c-5.6 0-5.6 0-5.6-5.5 0-0.6 0.1-1.2 0-1.8-0.1-1.3 0.3-1.9 1.8-1.8 2.9 0.2 6-0.3 8.9 0.5 2.7 0.7 4.3 2.5 4.1 4.6-0.2 2.2-2.2 3.9-5 4-1.4 0-2.8 0-4.2 0z"/>
		<path id="Layer" class="s3" d="m54.5 84.1c-4.6 0-4.6 0-4.6-4.2 0-0.5 0.1-0.9 0-1.3-0.3-1.9 0.4-2.7 2.5-2.5 2.1 0.2 4.3-0.1 6.4 0.4 1.9 0.4 3.3 1.5 3.5 3.4 0.1 2-1.3 3.1-3.1 3.7-1.6 0.6-3.3 0.4-4.7 0.5z"/>
		<path id="Layer" class="s1" d="m79.4 87.7c-0.2-3.1 1-6 2.9-8.6 3.6-5 10.4-4.9 13.8 0.3 3.6 5.6 3.7 11.2 0.2 16.9-3.4 5.5-10.2 5.7-14.1 0.5-2-2.8-2.8-5.2-2.8-9.1z"/>
	</g>
</svg>