<?xml version="1.0" encoding="utf-8"?>
<!-- Generator: Adobe Illustrator 25.0.0, SVG Export Plug-In . SVG Version: 6.00 Build 0)  -->
<svg version="1.1" id="Layer_1" xmlns="http://www.w3.org/2000/svg" xmlns:xlink="http://www.w3.org/1999/xlink" x="0px" y="0px"
	 viewBox="0 0 523 57" style="enable-background:new 0 0 523 57;" xml:space="preserve">
<style type="text/css">
	.st0{fill:#FEFEFE;}
	.st1{fill:#DF3D33;}
	.st2{fill:#505050;}
	.st3{fill:#4F4F4F;}
	.st4{fill:#FEFDFD;}
</style>
<g>
	<path class="st0" d="M261.5,56.95c-86.4,0-172.8-0.01-259.2,0.05c-1.87,0-2.31-0.42-2.3-2.29C0.08,37.07,0.07,19.43,0.01,1.79
		C0,0.3,0.31,0,1.8,0c173.13,0.04,346.27,0.04,519.4,0c1.49,0,1.8,0.3,1.79,1.79c-0.07,17.72-0.07,35.45,0.01,53.17
		c0.01,1.71-0.34,2.05-2.05,2.04C434.47,56.95,347.98,56.95,261.5,56.95z"/>
	<path class="st1" d="M422.44,30.63c0-3.24-0.04-6.48,0.02-9.72c0.02-1.23-0.09-1.97-1.63-2.06c-1.89-0.11-3.07-1.25-2.96-3.28
		c0.1-1.95,1.43-2.88,3.14-2.89c5.9-0.04,11.82-0.59,17.68,0.32c5.3,0.81,9.03,5.44,8.78,10.46c-0.09,1.81-0.7,3.43-1.79,4.82
		c-0.7,0.9-0.48,1.24,0.32,1.91c3.56,2.95,4.78,6.85,3.38,10.88c-1.5,4.34-4.74,7.03-9.19,7.32c-6.38,0.41-12.8,0.17-19.2,0.15
		c-1.83-0.01-3.03-0.99-3.12-2.86c-0.1-1.99,1.02-3.16,3-3.21c1.41-0.03,1.6-0.69,1.59-1.86C422.4,37.27,422.44,33.95,422.44,30.63z
		"/>
	<path class="st1" d="M501.73,12.59c4.33,0,8.67,0.04,13-0.02c1.27-0.02,1.77,0.32,1.74,1.67c-0.08,3.49,0.01,6.99-0.04,10.48
		c-0.03,2.31-1.31,3.73-3.17,3.72c-1.84-0.02-3.08-1.44-3.18-3.76c-0.06-1.33-0.08-2.67,0.01-3.99c0.08-1.24-0.28-1.73-1.64-1.76
		c-3.71-0.09-3.71-0.16-3.71,3.45c0,5.74,0.13,11.49-0.06,17.22c-0.08,2.41,0.76,3.11,2.97,2.81c0.65-0.09,1.34-0.04,1.99,0.09
		c1.6,0.31,2.48,1.35,2.5,2.96c0.01,1.61-0.83,2.93-2.43,2.97c-5.41,0.14-10.83,0.14-16.23,0.02c-1.58-0.04-2.51-1.25-2.54-2.88
		c-0.03-1.76,0.94-2.76,2.63-3.1c0.08-0.02,0.17-0.01,0.25-0.02c1.45-0.25,3.41,0.65,4.28-0.48c0.95-1.25,0.29-3.21,0.3-4.86
		c0.04-5.41-0.1-10.82,0.07-16.22c0.07-2.45-1.46-1.92-2.76-1.88c-1.24,0.03-3.03-0.71-2.77,1.81c0.15,1.48,0.09,3,0,4.49
		c-0.11,1.81-1.13,3-2.97,3.1c-1.86,0.1-3.15-1.03-3.23-2.8c-0.19-3.98-0.12-7.98-0.1-11.97c0.01-1.31,1.08-1.01,1.86-1.02
		C492.9,12.58,497.31,12.59,501.73,12.59z"/>
	<path class="st1" d="M483.98,30.73c-0.05,4.42-1.05,8.62-3.71,12.18c-6.65,8.91-18.14,8.79-24.72-0.15
		c-6.04-8.2-4.44-21.69,3.25-27.56c7.7-5.87,18.28-3.46,22.67,5.21C483.1,23.65,484.07,27.07,483.98,30.73z"/>
	<path class="st2" d="M359.09,41.22c0-7.71-0.02-15.41,0.02-23.12c0.01-1.64-1.1-1.22-2.03-1.39c-1.25-0.22-3.42,0.85-3.49-1.17
		c-0.07-2.32,2.23-1.28,3.52-1.39c1.98-0.17,3.99-0.06,5.99-0.04c0.94,0.01,1.94,0.05,1.98,1.34c0.04,1.19-0.9,1.3-1.74,1.26
		c-1.7-0.1-1.57,1.01-1.57,2.13c0.01,8.39,0.03,16.79-0.03,25.18c-0.01,0.83,0.66,2.16-0.89,2.4c-1.33,0.2-2.44,0.06-3.3-1.43
		c-4.95-8.55-10.04-17.02-15.09-25.51c-0.03-0.06-0.11-0.09-0.25-0.18c-0.57,0.52-0.31,1.21-0.31,1.8
		c-0.02,6.82,0.04,13.63-0.05,20.45c-0.03,1.78,0.31,2.55,2.29,2.43c1.17-0.07,3.35-0.95,3.29,1.3c-0.05,1.96-2.08,1.08-3.25,1.15
		c-2.16,0.13-4.33,0.03-6.49,0.04c-0.91,0-1.74-0.18-1.81-1.25c-0.07-1.13,0.78-1.38,1.69-1.29c1.39,0.13,1.66-0.56,1.65-1.77
		c-0.04-7.9-0.07-15.79,0.02-23.69c0.02-1.82-0.98-1.75-2.22-1.74c-0.97,0.01-2.29,0.17-2.31-1.21c-0.02-1.53,1.39-1.23,2.43-1.42
		c3.87-0.73,6.08,0.82,7.97,4.31c4.21,7.8,8.94,15.32,13.46,22.95C358.73,41.31,358.91,41.27,359.09,41.22z"/>
	<path class="st3" d="M173.97,43.91c1.57,0,2.82,0.02,4.06-0.01c0.97-0.03,1.72,0.29,1.68,1.34c-0.03,0.87-0.69,1.23-1.57,1.23
		c-2.83-0.02-5.66-0.01-8.49,0c-0.93,0-1.7-0.25-1.7-1.35c0-1,0.73-1.27,1.54-1.18c1.36,0.16,1.86-0.55,2.28-1.7
		c2.87-7.87,5.78-15.72,8.74-23.55c0.55-1.46,0.5-2.11-1.31-1.97c-1.57,0.13-3.16,0.04-4.74-0.02c-0.68-0.03-1.35-0.27-1.41-1.12
		c-0.07-0.96,0.58-1.39,1.39-1.4c3.74-0.05,7.49-0.06,11.23-0.02c1.12,0.01,1.1,1.09,1.37,1.81c3.24,8.52,6.47,17.05,9.68,25.59
		c0.5,1.33,0.82,2.74,2.79,2.4c0.75-0.13,1.32,0.39,1.36,1.14c0.05,0.9-0.55,1.35-1.42,1.36c-3,0.02-5.99,0.02-8.99,0
		c-0.86-0.01-1.46-0.46-1.42-1.37c0.04-0.98,0.83-1.01,1.6-1.18c1.27-0.29,3.16,0.92,3.7-0.66c0.33-0.98-0.74-2.45-1.2-3.69
		c-1.39-3.73-1.4-3.73-5.31-3.73c-3,0-5.99,0.05-8.99-0.02c-1.34-0.03-2.14,0.26-2.56,1.69C175.71,39.54,174.85,41.52,173.97,43.91z
		"/>
	<path class="st3" d="M100.54,46.47c-3.83,0-7.66,0-11.49,0c-1.03,0-2.17,0.02-2.11-1.42c0.06-1.35,1.24-1.21,2.09-1.1
		c2,0.26,2.5-0.51,2.47-2.47c-0.12-7.48-0.09-14.97-0.01-22.45c0.02-1.64-0.29-2.49-2.15-2.32c-0.99,0.09-2.48,0.33-2.39-1.33
		c0.08-1.56,1.52-1.25,2.54-1.25c7.08-0.02,14.16,0.03,21.24-0.05c1.61-0.02,2.26,0.39,2.15,2.07c-0.13,1.99-0.02,3.99-0.06,5.99
		c-0.02,0.89-0.32,1.74-1.4,1.68c-0.89-0.05-1.18-0.79-1.24-1.61c-0.01-0.17,0-0.33-0.02-0.5c-0.12-1.56,0.69-3.63-0.34-4.57
		c-1.22-1.1-3.34-0.35-5.07-0.38c-2.91-0.06-5.83,0.05-8.74-0.04c-1.44-0.05-2.11,0.25-2.02,1.89c0.14,2.65,0.14,5.33,0,7.98
		c-0.09,1.62,0.53,2.05,2,1.88c0.82-0.09,1.66-0.04,2.5-0.01c2,0.07,4.2,0.45,3.56-2.84c-0.15-0.79,0.51-1.22,1.26-1.21
		c0.76,0.01,1.23,0.47,1.23,1.27c0.01,2.66,0.01,5.32,0.01,7.98c0,0.77-0.33,1.31-1.14,1.36c-0.92,0.06-1.51-0.48-1.36-1.35
		c0.49-2.82-1.22-2.73-3.2-2.69c-4.81,0.09-4.81,0.03-4.81,4.76c0,2.25,0.04,4.49-0.02,6.74c-0.03,1.05,0.3,1.47,1.41,1.45
		c4.83-0.05,9.66-0.05,14.49,0c1.21,0.01,1.61-0.43,1.56-1.6c-0.07-1.66,0-3.33-0.02-4.99c-0.01-0.94,0.25-1.77,1.3-1.73
		c1.02,0.04,1.27,0.87,1.27,1.8c-0.02,2.49-0.09,4.99,0.03,7.48c0.07,1.44-0.58,1.6-1.77,1.58
		C108.37,46.43,104.46,46.47,100.54,46.47z"/>
	<path class="st3" d="M146.73,31.6c4.05,2.96,6.31,7.03,8.64,11.03c0.59,1.01,1.28,1.41,2.39,1.3c0.85-0.08,1.56,0.28,1.59,1.18
		c0.04,1.04-0.74,1.29-1.68,1.38c-2.04,0.18-3.49-0.19-4.59-2.31c-2.14-4.12-4.58-8.06-8.58-10.83c-2.63-1.82-5.45-1.02-8.21-1.14
		c-1.02-0.05-0.78,0.89-0.78,1.51c-0.02,2.83,0.07,5.66-0.04,8.48c-0.06,1.5,0.56,1.87,1.89,1.74c0.82-0.08,1.66,0.01,2.5,0
		c0.81-0.01,1.3,0.41,1.35,1.15c0.05,0.73-0.33,1.34-1.14,1.34c-3.5,0.03-6.99,0.03-10.49,0c-0.79-0.01-1.2-0.57-1.19-1.33
		c0.02-0.81,0.57-1.29,1.31-1.14c3.6,0.72,3.28-1.59,3.25-3.92c-0.07-7.07-0.08-14.13,0.01-21.2c0.02-1.65-0.45-2.23-2.09-2.13
		c-0.98,0.06-2.47,0.39-2.45-1.26c0.01-1.6,1.45-1.3,2.47-1.31c4.16-0.03,8.33-0.03,12.49,0c3.09,0.02,5.91,0.81,8.17,3.1
		c4.03,4.07,3.37,9.73-1.54,12.66C149.06,30.47,148.01,30.94,146.73,31.6z"/>
	<path class="st3" d="M56.11,46.47c-2.08,0-4.16-0.01-6.24,0c-0.99,0-1.94-0.11-1.95-1.36c0-1.16,0.95-1.32,1.79-1.17
		c2.43,0.41,2.83-0.74,2.79-2.9c-0.12-7.4-0.09-14.8-0.01-22.2c0.02-1.63-0.43-2.24-2.08-2.14c-0.98,0.06-2.47,0.4-2.46-1.26
		c0.01-1.6,1.44-1.31,2.47-1.32c4.16-0.03,8.33-0.12,12.49,0.02c6.92,0.23,11.16,4.44,10.69,10.42c-0.32,4.16-3.76,7.54-8.56,8.47
		c-2.73,0.53-5.48,0.35-8.22,0.31c-1.41-0.02-1.88,0.4-1.82,1.82c0.11,2.32,0.11,4.66,0,6.98c-0.07,1.47,0.48,1.86,1.86,1.78
		c1.91-0.1,3.83-0.01,5.74-0.03c0.93-0.01,1.79,0.23,1.78,1.27c-0.01,0.99-0.81,1.31-1.77,1.3C60.44,46.45,58.28,46.47,56.11,46.47z
		"/>
	<path class="st3" d="M32.56,29.4c0.03,4.57-0.76,7.75-2.41,10.72c-5.04,9.03-16.32,9.76-22.47,1.45
		c-5.28-7.13-4.4-18.52,1.89-24.44c5.79-5.45,14.38-4.75,19.27,1.57C31.31,21.89,32.57,25.91,32.56,29.4z"/>
	<path class="st3" d="M323.01,30.47c0.06,3.57-0.8,6.92-2.6,9.99c-5.08,8.68-16.21,9.26-22.22,1.19
		c-5.32-7.14-4.51-18.52,1.74-24.45c5.86-5.56,14.57-4.86,19.43,1.61C321.95,22.25,323.06,26.18,323.01,30.47z"/>
	<path class="st2" d="M227.09,30.41c0,3.82,0.08,7.65-0.04,11.47c-0.05,1.69,0.53,2.21,2.14,2.06c1.24-0.12,2.49-0.02,3.74-0.02
		c0.81,0,1.54,0.19,1.58,1.18c0.04,0.93-0.54,1.35-1.41,1.35c-4.83,0.01-9.66,0.01-14.48,0.01c-0.86,0-1.52-0.38-1.56-1.26
		c-0.05-0.93,0.63-1.27,1.48-1.28c0.17,0,0.33,0,0.5-0.01c1.73-0.13,4.02,0.76,5.04-0.34c1.2-1.3,0.38-3.64,0.4-5.52
		c0.05-6.32-0.04-12.64,0.06-18.95c0.03-1.78-0.3-2.64-2.28-2.38c-2.2,0.28-5.16-0.95-6.44,0.53c-1.09,1.26-0.34,4.12-0.4,6.27
		c-0.01,0.5,0.01,1-0.07,1.49c-0.13,0.74-0.58,1.17-1.38,1.14c-0.72-0.03-1.08-0.48-1.09-1.12c-0.04-3.32-0.05-6.65-0.04-9.97
		c0-0.94,0.75-0.93,1.44-0.93c7.74,0,15.48,0.01,23.22-0.01c1.13,0,1.42,0.51,1.4,1.52c-0.03,2.83,0,5.65-0.02,8.48
		c-0.01,0.93-0.02,1.97-1.28,2.04c-1.33,0.07-1.33-1.03-1.35-1.93c-0.05-1.91-0.08-3.83-0.01-5.73c0.05-1.28-0.41-1.69-1.71-1.77
		c-7.45-0.41-7.45-0.44-7.45,6.96C227.09,25.92,227.09,28.16,227.09,30.41z"/>
	<path class="st3" d="M266.02,30.22c0-3.66-0.14-7.33,0.05-10.98c0.12-2.18-0.65-2.74-2.67-2.53c-1.57,0.16-3.16,0.04-4.75,0.02
		c-0.95-0.01-2.01-0.1-1.97-1.34c0.03-1.01,0.94-1.27,1.84-1.27c5.83,0,11.66-0.01,17.5,0.01c0.95,0,1.97,0.15,1.93,1.41
		c-0.05,1.34-1.21,1.16-2.08,1.18c-1.83,0.05-3.67,0.06-5.5,0.01c-1.2-0.03-1.82,0.25-1.81,1.65c0.05,7.99,0.04,15.97,0.01,23.96
		c-0.01,1.18,0.38,1.63,1.58,1.59c2-0.07,4-0.02,6-0.01c0.88,0,1.78,0.08,1.81,1.21c0.04,1.1-0.78,1.34-1.7,1.34
		c-5.92,0-11.83-0.01-17.75,0.01c-0.94,0-1.78-0.26-1.83-1.26c-0.06-1.29,0.99-1.31,1.94-1.31c1.83,0,3.67-0.11,5.5,0.03
		c1.62,0.13,1.95-0.52,1.92-1.99C265.96,38.04,266.02,34.13,266.02,30.22z"/>
	<path class="st2" d="M391.94,39.54c2.54,0.03,4.2,1.61,4.18,3.95c-0.02,2.33-1.73,3.85-4.3,3.84c-2.54-0.01-4.31-1.56-4.34-3.83
		C387.45,41.12,389.25,39.51,391.94,39.54z"/>
	<path class="st3" d="M391.71,30.18c-2.58-0.04-4.27-1.58-4.23-3.88c0.03-2.39,1.82-3.87,4.57-3.8c2.54,0.06,4.15,1.65,4.06,4.02
		C396.03,28.88,394.41,30.23,391.71,30.18z"/>
	<path class="st4" d="M434.28,42.37c-5.6,0.02-5.61,0.02-5.6-5.56c0.01-4.23-0.39-3.67,3.78-3.66c2.08,0.01,4.17,0.09,6.22,0.37
		c2.95,0.4,4.86,2.31,4.82,4.53c-0.05,2.38-2.11,4.12-5.22,4.31C436.95,42.44,435.62,42.37,434.28,42.37z"/>
	<path class="st4" d="M433.33,18.89c1.41,0.08,2.86-0.03,4.21,0.28c1.87,0.42,3.47,1.43,3.5,3.63c0.03,2.08-1.45,3.1-3.23,3.6
		c-2.59,0.73-5.28,0.47-7.93,0.49c-0.86,0.01-1.17-0.46-1.18-1.24c-0.01-0.66-0.01-1.33-0.01-1.99
		C428.68,18.96,428.68,18.96,433.33,18.89z"/>
	<path class="st0" d="M477.57,30.72c0.18,3.16-0.86,5.91-2.54,8.46c-3.21,4.89-9.45,5.38-13.38,1.05
		c-4.67-5.14-4.63-14.01,0.08-19.17c3.75-4.11,9.97-3.73,13.09,0.85C476.63,24.58,477.79,27.47,477.57,30.72z"/>
	<path class="st0" d="M177.97,33.13c2.06-5.59,4.02-10.92,6.08-16.5c1.22,1.16,1.37,2.5,1.83,3.66c1.46,3.7,2.81,7.44,4.24,11.15
		c0.37,0.97,0.73,1.73-0.88,1.71C185.58,33.1,181.94,33.13,177.97,33.13z"/>
	<path class="st0" d="M135.68,23.24c0-2.07-0.82-4.85,0.21-6.03c1.22-1.4,4.07-0.39,6.21-0.46c2.8-0.08,5.47,0.31,7.58,2.48
		c2.66,2.74,2.48,5.79-0.66,8.05c-2.22,1.59-4.77,2.22-7.52,2.28c-5.98,0.13-5.98,0.17-5.98-5.82c0-0.17,0-0.33,0-0.5
		C135.57,23.24,135.62,23.24,135.68,23.24z"/>
	<path class="st0" d="M55.03,23.65c0-1.83,0.05-3.66-0.02-5.48c-0.04-1.08,0.36-1.48,1.43-1.44c2.41,0.08,4.83-0.02,7.23,0.16
		c4.1,0.32,7.23,3.14,7.37,6.45c0.14,3.28-2.81,6.55-6.8,7.09c-2.62,0.35-5.31,0.19-7.96,0.3c-1,0.04-1.28-0.42-1.26-1.34
		C55.06,27.47,55.03,25.56,55.03,23.65z"/>
	<path class="st0" d="M29.96,30.85c-0.11,2.77-0.89,5.77-2.64,8.5c-4.31,6.77-12.23,7.18-17.22,0.88
		c-4.47-5.63-4.24-14.8,0.51-20.28c4.72-5.45,11.94-5.15,16.18,0.67C28.76,23.34,29.96,27.02,29.96,30.85z"/>
	<path class="st0" d="M297.38,29.46c-0.04-3.36,1.31-7.09,4.29-10.16c4.33-4.46,10.54-4.32,14.69,0.3
		c5.35,5.96,5.34,15.63-0.04,21.65c-3.79,4.25-9.69,4.6-13.99,0.83C299,39.15,297.37,35.3,297.38,29.46z"/>
</g>
</svg>
