<?xml version="1.0" encoding="utf-8"?>
<!-- Generator: Adobe Illustrator 25.0.0, SVG Export Plug-In . SVG Version: 6.00 Build 0)  -->
<svg version="1.1" id="Layer_1" xmlns="http://www.w3.org/2000/svg" xmlns:xlink="http://www.w3.org/1999/xlink" x="0px" y="0px"
	 viewBox="0 0 178.91 175.96" style="enable-background:new 0 0 178.91 175.96;" xml:space="preserve">
<style type="text/css">
	.st0{fill:#FEFEFE;}
	.st1{fill:#4F4F4F;}
	.st2{fill:#DF3D33;}
	.st3{fill:#FEFDFD;}
</style>
<g>
	<path class="st0" d="M0,175.95C0,117.98,0.01,60.02-0.05,2.05C-0.05,0.34,0.29,0,2,0c58.3,0.06,116.6,0.06,174.91,0
		c1.71,0,2.05,0.34,2.05,2.05c-0.06,57.3-0.06,114.6,0,171.91c0,1.71-0.34,2.05-2.05,2.05C117.94,175.94,58.97,175.95,0,175.95z"/>
	<path class="st1" d="M3.93,88.09C4.05,41.02,42.16,3.01,89.17,3.07c46.95,0.06,85.17,38.32,85.13,85.22
		c-0.04,47.04-38.43,85.29-85.45,85.15C41.82,173.29,3.81,135.09,3.93,88.09z"/>
	<path class="st0" d="M13.42,88.24c0.01-41.87,33.93-75.75,75.78-75.68c41.68,0.07,75.61,34.04,75.61,75.7
		c-0.01,41.76-34.09,75.76-75.87,75.68C47.19,163.86,13.42,130.01,13.42,88.24z"/>
	<path class="st2" d="M51,105.95c-2.74,0-5.49,0.02-8.23-0.01c-1.94-0.02-3.53-0.74-3.74-2.86c-0.22-2.16,1.17-3.23,3.14-3.4
		c1.29-0.11,1.4-0.75,1.39-1.79c-0.03-6.65-0.04-13.31,0.01-19.96c0.01-1.2-0.26-1.81-1.61-1.88c-1.97-0.1-3.1-1.29-2.94-3.27
		c0.17-1.98,1.54-2.83,3.46-2.83c5.24,0,10.48-0.1,15.72,0.06c7.8,0.23,13.59,8.73,8.63,15.63c-0.4,0.55-0.81,0.94,0.04,1.59
		c3.98,3.04,5.23,7.08,3.45,11.71c-1.86,4.82-5.91,6.75-10.84,6.99C56.67,106.07,53.83,105.95,51,105.95z"/>
	<path class="st2" d="M105.09,88.02c-0.15,5.48-1.51,10.49-5.66,14.42c-6.72,6.37-16.36,5.68-22.09-1.6
		c-5.99-7.61-5.72-19.2,0.63-26.5c7.05-8.11,19.99-6.26,24.78,3.56C104.3,81.08,105.25,84.43,105.09,88.02z"/>
	<path class="st2" d="M122.7,69.94c4.33,0,8.66,0.05,12.99-0.03c1.36-0.02,1.92,0.31,1.87,1.79c-0.1,3.49-0.02,6.99-0.04,10.49
		c-0.01,2.03-0.89,3.41-3.09,3.41c-2.2,0-3.06-1.37-3.1-3.4c-0.02-1.17-0.13-2.35,0.02-3.49c0.28-2.17-0.7-2.54-2.68-2.64
		c-2.39-0.11-2.88,0.72-2.83,2.94c0.15,6.08,0.12,12.16,0.01,18.24c-0.03,1.79,0.32,2.47,2.29,2.39c3.58-0.14,5.27,1.04,5.24,3.17
		c-0.03,2.14-1.73,3.15-5.3,3.15c-4.16,0-8.33,0.03-12.49-0.03c-1.98-0.03-3.48-0.99-3.54-3.09c-0.05-2.14,1.48-3,3.43-3.21
		c0.41-0.04,0.84-0.1,1.25-0.03c2.33,0.42,2.88-0.61,2.82-2.84c-0.15-6.16-0.16-12.33,0-18.49c0.06-2.18-1-2.24-2.57-2.13
		c-1.41,0.1-3.18-0.49-2.94,2.06c0.14,1.48,0.08,3-0.02,4.49c-0.13,1.84-1.15,2.92-3.06,2.91c-1.9-0.01-3-1.1-3.05-2.93
		c-0.1-3.83-0.01-7.66-0.06-11.49c-0.02-1.5,0.98-1.25,1.86-1.25C114.03,69.93,118.37,69.94,122.7,69.94z"/>
	<path class="st0" d="M55.48,99.56c-5.54,0.02-5.54,0.02-5.54-5.5c0-0.58,0.06-1.17-0.01-1.74c-0.16-1.34,0.25-1.96,1.74-1.86
		c2.97,0.19,5.98-0.28,8.93,0.51c2.66,0.71,4.28,2.54,4.08,4.62c-0.21,2.23-2.21,3.86-4.96,3.98C58.3,99.61,56.89,99.56,55.48,99.56
		z"/>
	<path class="st3" d="M54.51,84.09c-4.57,0-4.57,0-4.57-4.23c0-0.42,0.05-0.84-0.01-1.24c-0.3-1.92,0.4-2.68,2.42-2.5
		c2.14,0.19,4.32-0.11,6.45,0.37c1.86,0.42,3.33,1.5,3.46,3.42c0.14,1.96-1.24,3.09-3.07,3.73C57.57,84.19,55.91,84,54.51,84.09z"/>
	<path class="st0" d="M79.41,87.73c-0.22-3.11,0.98-5.98,2.88-8.59c3.65-5.03,10.4-4.91,13.81,0.28c3.65,5.54,3.74,11.21,0.23,16.85
		c-3.43,5.51-10.25,5.72-14.12,0.5C80.16,94,79.39,91.57,79.41,87.73z"/>
</g>
</svg>
